<svg width="80" height="80" viewBox="0 0 80 80" fill="none" xmlns="http://www.w3.org/2000/svg">
<path fill-rule="evenodd" clip-rule="evenodd" d="M14.7125 59.5299C15.9052 58.8346 17.436 59.2376 18.1315 60.4303C20.8877 65.1569 25.1014 68.7309 30.2976 71.0503C31.5584 71.6129 32.1244 73.0913 31.5616 74.3523C30.9989 75.6129 29.5206 76.1789 28.2598 75.6163C22.2214 72.9213 17.1554 68.6819 13.8122 62.9489C13.1167 61.7563 13.5198 60.2256 14.7125 59.5299Z" fill="#BFBDBD"/>
<path fill-rule="evenodd" clip-rule="evenodd" d="M63.0193 13.0732C59.6396 9.62156 54.8196 8.34843 50.101 9.69103C48.773 10.0689 47.3903 9.29866 47.0123 7.97066C46.6346 6.64266 47.4046 5.25976 48.7326 4.88189C55.1933 3.0436 61.915 4.79866 66.5916 9.57503C67.5576 10.5616 67.541 12.1444 66.5546 13.1104C65.568 14.0764 63.9853 14.0597 63.0193 13.0732Z" fill="#BFBDBD"/>
<path fill-rule="evenodd" clip-rule="evenodd" d="M37.3003 11.028C36.587 9.8044 34.5077 9.06237 32.3953 10.2695C30.2907 11.4723 29.9206 13.5924 30.6217 14.7947L39.0407 29.2318C39.736 30.4245 39.333 31.9552 38.1403 32.6508C36.9477 33.3464 35.417 32.9432 34.7213 31.7505L23.4962 12.5011C22.7826 11.2775 20.7033 10.5355 18.591 11.7426C16.4865 12.9454 16.1164 15.0655 16.8175 16.2678L29.4458 37.9234C30.1413 39.116 29.7382 40.647 28.5455 41.3424C27.3528 42.038 25.822 41.635 25.1265 40.442L19.5139 30.8174C18.8004 29.5938 16.721 28.8518 14.6088 30.059C12.5043 31.2617 12.1341 33.3817 12.8353 34.584L25.4635 56.2397C30.8267 65.4367 44.0613 68.4214 55.2843 62.007C66.5 55.5974 70.4867 42.7924 65.136 33.6167L56.7173 19.1796C56.0037 17.956 53.9243 17.214 51.812 18.4211C49.7077 19.6239 49.3373 21.744 50.0387 22.9463L55.651 32.571C55.987 33.1471 56.079 33.8334 55.9063 34.4774C55.7337 35.1217 55.311 35.67 54.732 36.001C49.5903 38.9394 48.0147 44.621 50.2657 48.481C50.9613 49.674 50.5583 51.2047 49.3653 51.9C48.1727 52.5957 46.642 52.1927 45.9463 51C42.904 45.7827 44.1333 39.5004 48.063 35.0604C49.1617 33.819 49.5377 32.0132 48.7027 30.5813L37.3003 11.028Z" fill="#BFBDBD"/>
</svg>
