<svg width="24" height="24" viewBox="0 0 24 24" fill="none" xmlns="http://www.w3.org/2000/svg">
<path fill-rule="evenodd" clip-rule="evenodd" d="M12 1.19995C8.80135 1.19995 5.92752 2.59045 3.94997 4.79995C2.23982 6.71067 1.19995 9.23388 1.19995 12C1.19995 14.766 2.23982 17.2892 3.94997 19.2C5.92752 21.4094 8.80135 22.8 12 22.8C14.8983 22.8 17.5301 21.6582 19.4699 19.8C21.5221 17.8341 22.8 15.0662 22.8 12C22.8 9.10156 21.6582 6.46983 19.8 4.52999C17.8341 2.47779 15.0662 1.19995 12 1.19995ZM12 5.99995C12.497 5.99995 12.9 6.4029 12.9 6.89995V8.69995C12.9 9.19701 12.497 9.59995 12 9.59995C11.5029 9.59995 11.1 9.19701 11.1 8.69995V6.89995C11.1 6.4029 11.5029 5.99995 12 5.99995ZM12 12C12.497 12 12.9 12.4029 12.9 12.9L12.9 17.1C12.9 17.597 12.497 18 12 18C11.5029 18 11.1 17.597 11.1 17.1L11.1 12.9C11.1 12.4029 11.5029 12 12 12Z" fill="#BFBDBD"/>
</svg>
