<svg width="24" height="24" viewBox="0 0 24 24" fill="none" xmlns="http://www.w3.org/2000/svg">
<path d="M19.602 6.90851L20.8902 3.1106L17.0921 4.3986L13.878 2L13.9293 6.01015L10.6549 8.32547L14.4846 9.51627L15.6752 13.3457L17.9907 10.0715L22.0008 10.1227L19.602 6.90851Z" fill="black"/>
<path d="M13.3463 10.6545L11.8078 10.176L2.41652 19.5673C1.86002 20.1238 1.86002 21.0261 2.41652 21.5826C2.97297 22.139 3.8752 22.139 4.43173 21.5826L13.8238 12.1905L13.3463 10.6545Z" fill="black"/>
<path d="M13.9577 15.8002L12.9502 16.8076L13.9577 17.8151L14.9652 16.8077L13.9577 15.8002Z" fill="black"/>
<path d="M20.5498 13.3455L19.5424 14.353L20.5499 15.3606L21.5574 14.3531L20.5498 13.3455Z" fill="black"/>
<path d="M6.83273 9.14988L5.82513 10.1575L6.83273 11.1651L7.84032 10.1575L6.83273 9.14988Z" fill="black"/>
<path d="M9.56698 2.85984L8.55939 3.86743L9.56698 4.87503L10.5746 3.86743L9.56698 2.85984Z" fill="black"/>
</svg>
