<svg width="20" height="20" viewBox="20 6 20 20" fill="none" xmlns="http://www.w3.org/2000/svg"><path d="M23.333 10.6667C23.333 10.092 23.5613 9.54093 23.9676 9.1346C24.3739 8.72827 24.925 8.5 25.4997 8.5H26.9997C27.5743 8.5 28.1254 8.72827 28.5317 9.1346C28.9381 9.54093 29.1663 10.092 29.1663 10.6667V15.1667H30.833V14C30.833 13.4254 31.0613 12.8743 31.4676 12.4679C31.8739 12.0616 32.425 11.8333 32.9997 11.8333H34.4997C34.7842 11.8333 35.066 11.8894 35.3288 11.9983C35.5917 12.1071 35.8305 12.2667 36.0317 12.4679C36.2329 12.6691 36.3925 12.908 36.5014 13.1709C36.6103 13.4337 36.6663 13.7155 36.6663 14V15.1667H38.333C38.554 15.1667 38.766 15.2545 38.9223 15.4107C39.0785 15.567 39.1663 15.779 39.1663 16C39.1663 16.221 39.0785 16.433 38.9223 16.5893C38.766 16.7455 38.554 16.8333 38.333 16.8333H36.6663V18C36.6663 18.2845 36.6103 18.5663 36.5014 18.8291C36.3925 19.092 36.2329 19.3309 36.0317 19.5321C35.8305 19.7333 35.5917 19.8929 35.3288 20.0017C35.066 20.1106 34.7842 20.1667 34.4997 20.1667H32.9997C32.425 20.1667 31.8739 19.9384 31.4676 19.5321C31.0613 19.1257 30.833 18.5746 30.833 18V16.8333H29.1663V21.3333C29.1663 21.908 28.9381 22.4591 28.5317 22.8654C28.1254 23.2717 27.5743 23.5 26.9997 23.5H25.4997C25.2151 23.5 24.9334 23.444 24.6705 23.3351C24.4077 23.2262 24.1688 23.0666 23.9676 22.8654C23.5613 22.4591 23.333 21.908 23.333 21.3333V16.8333H21.6663C21.4453 16.8333 21.2334 16.7455 21.0771 16.5893C20.9208 16.433 20.833 16.221 20.833 16C20.833 15.779 20.9208 15.567 21.0771 15.4107C21.2334 15.2545 21.4453 15.1667 21.6663 15.1667H23.333V10.6667Z" fill="#666261"/></svg>
