<svg width="50" height="50" viewBox="0 0 50 50" fill="none" xmlns="http://www.w3.org/2000/svg">
<g clip-path="url(#clip0_88_81)">
<path d="M46.4375 0.03125C45.5391 0.0390625 44.6953 0.398438 44.2188 1.125L36.625 15.4062C37.1875 15.6016 38.4531 16.1641 42.6562 18.0625L42.7188 18.0938C43.4453 18.4219 44 18.6562 44.2188 18.75C44.293 18.7852 44.3633 18.8398 44.4375 18.875L49.9688 3.5625C50.3164 2.35156 49.4492 0.957031 48.0625 0.40625C47.5469 0.148438 46.9766 0.0273438 46.4375 0.03125ZM4 8C1.79297 8 0 9.79297 0 12C0 14.207 1.79297 16 4 16C6.20703 16 8 14.207 8 12C8 9.79297 6.20703 8 4 8ZM13 11C11.8945 11 11 11.8945 11 13C11 14.1055 11.8945 15 13 15C14.1055 15 15 14.1055 15 13C15 11.8945 14.1055 11 13 11ZM32.1562 16.625C30.2227 16.7695 28.5391 17.7305 27.3438 19.4062C28.0977 20.6758 29.418 22.2266 31.2812 22.1875C31.7734 22.168 32.1875 22.5234 32.2812 23C32.6602 23.5898 34.9883 24.6367 35.6562 24.375C35.9375 24.2656 36.2383 24.2891 36.5 24.4375C36.7617 24.5859 36.9492 24.8281 37 25.125C37.0391 25.2891 37.4766 25.8633 38.375 26.2812C39.082 26.6094 39.7695 26.6914 40.1562 26.5C40.4062 26.375 40.6797 26.3711 40.9375 26.4688C41.1992 26.5664 41.4258 26.7734 41.5312 27.0312C42.207 28.6797 45.293 28.8008 47.4062 28.625C47.7148 27.2852 47.6328 25.8906 47.1562 24.5938C46.4961 22.8086 45.1875 21.3984 43.4062 20.5938C43.2188 20.5117 42.6133 20.2227 41.8438 19.875C38.2812 18.2656 36.2695 17.3906 35.875 17.2812C34.5703 16.7656 33.3164 16.5391 32.1562 16.625ZM11.5 18C8.46875 18 6 20.4688 6 23.5C6 26.5312 8.46875 29 11.5 29C14.5312 29 17 26.5312 17 23.5C17 20.4688 14.5312 18 11.5 18ZM26.2812 21.4062C25.9688 22.1484 25.6133 22.8438 25.25 23.5C25.6797 24.5469 26.9492 26.9727 29.2812 26.4375C29.5508 26.375 29.8359 26.4102 30.0625 26.5625C30.293 26.7148 30.4219 26.9492 30.4688 27.2188C30.5352 27.5938 30.9766 28.0391 31.5938 28.375C32.4688 28.8477 33.4141 28.9531 33.8125 28.7812C34.0742 28.668 34.3672 28.6602 34.625 28.7812C34.8828 28.9023 35.0781 29.1328 35.1562 29.4062C35.2969 29.8828 35.7891 30.3711 36.4688 30.7188C37.2695 31.125 38.1836 31.2734 38.7812 31.0625C39.2422 30.9023 39.7344 31.0977 39.9688 31.5312C40.8516 33.168 43.75 33.3438 46 33.1875C46.2852 32.375 46.5508 31.5391 46.8125 30.6562C46.543 30.6719 46.2617 30.6875 45.9688 30.6875C43.875 30.6875 41.3711 30.2734 40.125 28.5625C39.2812 28.6758 38.3125 28.4922 37.3438 28C36.6406 27.6406 35.8672 27.0898 35.4062 26.4062C34.1328 26.4062 32.668 25.6992 31.9375 25.25C31.3711 24.9023 30.9297 24.5586 30.6562 24.1875C28.6719 24.0039 27.2539 22.7109 26.2812 21.4062ZM24 25.4688C17.8008 34.082 7.21484 33.8281 7.09375 33.8125C6.69922 33.7773 6.3125 33.9883 6.125 34.3438C5.9375 34.6992 5.96484 35.125 6.21875 35.4375C8.00391 37.6406 9.92188 39.5039 11.875 41.0938C12.7969 41.2773 18.5977 42.0977 24.3438 35.4375C24.7031 35.0195 25.332 34.9844 25.75 35.3438C26.168 35.7031 26.2031 36.332 25.8438 36.75C21.8359 41.3945 17.6094 42.8477 14.6562 43.1562C17.125 44.8203 19.6133 46.0781 21.9375 47.0312C23.4141 46.7227 28.3672 45.2422 32.75 38.5625C33.0547 38.1016 33.6953 37.9453 34.1562 38.25C34.6172 38.5547 34.7422 39.1953 34.4375 39.6562C31.1328 44.6914 27.5156 47.0547 24.9688 48.1562C30.168 49.8398 34.0469 49.9883 34.375 50H34.4062C34.5938 50 34.7773 49.9453 34.9375 49.8438C35.2188 49.668 41.0078 45.8867 45.25 35.25C45.0859 35.2539 44.918 35.2812 44.75 35.2812C42.5625 35.2812 40.0352 34.8398 38.6562 33.125C37.6875 33.2422 36.5781 33.0195 35.5625 32.5C34.7344 32.0742 34.0781 31.5039 33.6562 30.8438C32.5938 30.9336 31.4453 30.5508 30.6562 30.125C29.8438 29.6836 29.207 29.1289 28.8438 28.5C26.543 28.6211 24.9453 27.0547 24 25.4688Z" fill="#666261"/>
</g>
<defs>
<clipPath id="clip0_88_81">
<rect width="50" height="50" fill="white"/>
</clipPath>
</defs>
</svg>
